# xmcd
#
# Track frame offsets:
# 150
# 11913
# 22111
# 38260
# 49000
# 66821
# 73008
# 93800
# 111313
# 121639
#
# Disc length: 1808 seconds
#
#
# Revision: 0
# Processed by: cddbd v1.4PL0 Copyright (c) Steve Scherf et al.
# Submitted via: FreeRIP 2.00 
#
DISCID=7a070e0a
DTITLE=Merle Haggard - A Legendary Performer
DYEAR=1900
DGENRE=Country
TTITLE0=Okie From Muskogee
TTITLE1=Mama Tried
TTITLE2=Today I Started Loving You Again
TTITLE3=Ida Red
TTITLE4=l Think l'll Just Stay Here And Drink
TTITLE5=Fightin' Side Of Me
TTITLE6=The Bottle Let Me Down
TTITLE7=Chill Factor
TTITLE8=This Mornin' This Evenin' So Soon
TTITLE9=That's The Way Love Goes
EXTD=
EXTT0=
EXTT1=
EXTT2=
EXTT3=
EXTT4=
EXTT5=
EXTT6=
EXTT7=
EXTT8=
EXTT9=
PLAYORDER=
